<svg width="135" height="43" viewBox="0 0 135 43" fill="none" xmlns="http://www.w3.org/2000/svg">
<path d="M124.831 0.00013975H10.1747C9.78343 0.00013975 9.39681 0.00013975 9.00653 0.00228975C8.67983 0.00443975 8.35573 0.0106855 8.02589 0.0159423C7.30932 0.0244367 6.59445 0.0879417 5.88746 0.205906C5.18148 0.326437 4.4976 0.553674 3.85898 0.87993C3.22113 1.20895 2.63831 1.63647 2.13167 2.14699C1.62236 2.65607 1.19781 3.24451 0.874353 3.88966C0.549999 4.53353 0.325091 5.2235 0.207397 5.93573C0.0885835 6.64706 0.024649 7.3666 0.016167 8.08788C0.00626406 8.41748 0.00521827 8.74817 0 9.07781V33.9256C0.00521827 34.2594 0.00626406 34.5828 0.016167 34.9167C0.0246516 35.6379 0.0885861 36.3574 0.207397 37.0687C0.324766 37.7814 0.549688 38.4717 0.874353 39.1158C1.19767 39.7589 1.62227 40.345 2.13167 40.8512C2.63639 41.364 3.21959 41.7918 3.85898 42.1183C4.4976 42.4454 5.1814 42.674 5.88746 42.7964C6.59457 42.9134 7.30937 42.977 8.02589 42.9865C8.35573 42.9938 8.67983 42.998 9.00653 42.998C9.3968 43.0001 9.78345 43.0001 10.1747 43.0001H124.831C125.215 43.0001 125.604 43.0001 125.988 42.998C126.313 42.998 126.646 42.9938 126.972 42.9865C127.687 42.9775 128.4 42.9139 129.106 42.7964C129.814 42.6732 130.5 42.4446 131.142 42.1183C131.781 41.7916 132.364 41.3638 132.868 40.8512C133.376 40.343 133.801 39.7574 134.129 39.1158C134.451 38.4713 134.674 37.781 134.789 37.0687C134.908 36.3573 134.975 35.638 134.988 34.9167C134.992 34.5828 134.992 34.2594 134.992 33.9256C135 33.5351 135 33.1467 135 32.7498V10.2515C135 9.8578 135 9.46728 134.992 9.07781C134.992 8.74817 134.992 8.41748 134.988 8.08784C134.975 7.36649 134.908 6.64712 134.789 5.93569C134.673 5.22387 134.451 4.53396 134.129 3.88962C133.47 2.59648 132.426 1.54387 131.142 0.879834C130.5 0.554375 129.814 0.327198 129.106 0.205809C128.4 0.0873252 127.687 0.0237981 126.972 0.0157917C126.646 0.0105457 126.313 0.00424625 125.988 0.00215C125.604 0 125.215 0 124.831 0V0.00013975Z" fill="#A6A6A6"/>
<path d="M9.01175 42.0597C8.68663 42.0597 8.36934 42.0555 8.04676 42.0482C7.37851 42.0394 6.71181 41.9808 6.05215 41.8728C5.43704 41.7661 4.84117 41.5676 4.28419 41.2838C3.73232 41.0024 3.22896 40.6334 2.79341 40.191C2.35155 39.7538 1.98369 39.2467 1.70439 38.6898C1.42202 38.1292 1.2266 37.5284 1.12494 36.9083C1.01516 36.2419 0.955762 35.5681 0.947263 34.8926C0.940498 34.6659 0.931641 33.9111 0.931641 33.9111V9.07796C0.931641 9.07796 0.941074 8.33469 0.947317 8.11633C0.955455 7.44196 1.0145 6.7692 1.12395 6.10385C1.2258 5.48199 1.42138 4.87945 1.7039 4.3171C1.98217 3.76058 2.34799 3.2531 2.78718 2.8143C3.22588 2.37134 3.73085 2.00044 4.28367 1.71514C4.83937 1.43229 5.43411 1.23518 6.04798 1.13041C6.70981 1.02137 7.37882 0.962413 8.04939 0.954044L9.01228 0.940918H125.983L126.957 0.95457C127.621 0.962525 128.284 1.02095 128.94 1.12935C129.56 1.23544 130.161 1.43393 130.723 1.71829C131.831 2.29325 132.732 3.20289 133.3 4.31972C133.578 4.87819 133.771 5.47581 133.871 6.09231C133.982 6.76311 134.044 7.44116 134.057 8.12106C134.06 8.4255 134.06 8.75251 134.06 9.07796C134.068 9.48108 134.068 9.86478 134.068 10.2516V32.75C134.068 33.1405 134.068 33.5216 134.06 33.9058C134.06 34.2554 134.06 34.5756 134.056 34.9052C134.043 35.573 133.982 36.2389 133.873 36.8977C133.774 37.5224 133.58 38.1279 133.297 38.693C133.016 39.2438 132.65 39.7466 132.213 40.1826C131.777 40.6274 131.273 40.9986 130.72 41.2818C130.16 41.5677 129.56 41.767 128.94 41.8728C128.281 41.9814 127.614 42.04 126.945 42.0482C126.633 42.0555 126.306 42.0597 125.988 42.0597L124.831 42.0618L9.01175 42.0597Z" fill="black"/>
<path d="M26.4347 21.8232C26.4462 20.926 26.6828 20.0462 27.1225 19.2658C27.5621 18.4854 28.1906 17.8297 28.9495 17.3598C28.4674 16.6662 27.8314 16.0955 27.0921 15.6928C26.3528 15.2902 25.5304 15.0668 24.6904 15.0403C22.8984 14.8508 21.1612 16.1205 20.248 16.1205C19.3172 16.1205 17.9112 15.0591 16.3973 15.0905C15.418 15.1223 14.4636 15.4092 13.6271 15.9231C12.7906 16.437 12.1005 17.1605 11.6241 18.0229C9.56026 21.6225 11.0997 26.9126 13.0767 29.8222C14.0658 31.247 15.2218 32.8384 16.7344 32.782C18.2146 32.7202 18.7674 31.8312 20.5541 31.8312C22.3242 31.8312 22.8429 32.782 24.3861 32.7461C25.9744 32.7202 26.9751 31.315 27.9296 29.8768C28.6402 28.8616 29.1871 27.7396 29.5499 26.5524C28.6271 26.1592 27.8397 25.5011 27.2857 24.6601C26.7317 23.8192 26.4358 22.8325 26.4347 21.8232V21.8232Z" fill="white"/>
<path d="M23.5197 13.1269C24.3857 12.0797 24.8123 10.7336 24.709 9.37451C23.386 9.5145 22.1638 10.1515 21.2861 11.1586C20.857 11.6506 20.5283 12.223 20.3189 12.843C20.1095 13.463 20.0234 14.1185 20.0656 14.7721C20.7274 14.779 21.3821 14.6345 21.9804 14.3495C22.5787 14.0645 23.105 13.6465 23.5197 13.1269Z" fill="white"/>
<path d="M74.6579 16.2893H75.6281C75.7084 16.6404 76.1096 16.8672 76.7495 16.8672C77.5394 16.8672 78.0073 16.4893 78.0073 15.8494V14.9203H77.9364C77.7877 15.1804 77.5705 15.394 77.3087 15.5375C77.047 15.681 76.7511 15.7488 76.4535 15.7334C75.2269 15.7334 74.4683 14.7781 74.4683 13.3288C74.4683 11.8528 75.2353 10.8838 76.4629 10.8838C76.7679 10.8731 77.07 10.9471 77.3361 11.0976C77.6022 11.2481 77.8221 11.4694 77.9719 11.7373H78.0469V10.9641H78.9556V15.8446C78.9556 16.9517 78.0948 17.654 76.7359 17.654C75.5354 17.654 74.759 17.1118 74.6579 16.2893ZM78.025 13.3241C78.025 12.3598 77.53 11.742 76.7224 11.742C75.9064 11.742 75.4479 12.3599 75.4479 13.3241C75.4479 14.2889 75.9064 14.9067 76.7224 14.9067C77.5352 14.9067 78.025 14.2936 78.025 13.3241V13.3241Z" fill="white"/>
<path d="M85.8607 10.9641H86.7737V11.7064H86.8445C86.9467 11.4487 87.1274 11.2303 87.3605 11.0825C87.5936 10.9347 87.8672 10.8652 88.142 10.8838C88.284 10.8819 88.4259 10.8953 88.5651 10.9237V11.8665C88.391 11.829 88.2136 11.8097 88.0357 11.8088C87.8793 11.7946 87.7216 11.8136 87.5729 11.8644C87.4242 11.9153 87.2877 11.9969 87.1722 12.1041C87.0567 12.2113 86.9647 12.3416 86.9021 12.4867C86.8396 12.6318 86.8079 12.7885 86.809 12.9467V15.8048H85.8607V10.9641Z" fill="white"/>
<path d="M71.0813 10.9641H71.9942V11.7064H72.0651C72.1673 11.4487 72.3479 11.2303 72.581 11.0825C72.8141 10.9347 73.0877 10.8652 73.3625 10.8838C73.5045 10.8819 73.6464 10.8953 73.7856 10.9237V11.8665C73.6116 11.829 73.4342 11.8097 73.2562 11.8088C73.0998 11.7946 72.9422 11.8136 72.7935 11.8644C72.6448 11.9153 72.5083 11.997 72.3928 12.1041C72.2773 12.2113 72.1853 12.3416 72.1227 12.4867C72.0602 12.6319 72.0285 12.7885 72.0296 12.9467V15.8048H71.0813L71.0813 10.9641Z" fill="white"/>
<path d="M110.574 10.8706C111.654 10.8706 112.361 11.3771 112.454 12.2306H111.544C111.456 11.8753 111.111 11.6485 110.574 11.6485C110.044 11.6485 109.642 11.9015 109.642 12.2794C109.642 12.5686 109.885 12.7508 110.406 12.871L111.204 13.0573C112.118 13.271 112.546 13.6668 112.546 14.378C112.546 15.2892 111.703 15.8981 110.556 15.8981C109.413 15.8981 108.668 15.3779 108.583 14.5203H109.533C109.614 14.7244 109.762 14.8949 109.951 15.0045C110.141 15.114 110.362 15.1563 110.578 15.1244C111.169 15.1244 111.589 14.8578 111.589 14.4709C111.589 14.1822 111.364 13.9953 110.882 13.8799L110.044 13.6841C109.13 13.4662 108.707 13.0531 108.707 12.333C108.707 11.4748 109.488 10.8706 110.574 10.8706Z" fill="white"/>
<path d="M97.7512 14.4357C97.7512 13.5644 98.3953 13.0621 99.5385 12.9907L100.84 12.9151V12.4973C100.84 11.986 100.505 11.6973 99.8563 11.6973C99.3269 11.6973 98.9601 11.8931 98.8548 12.2353H97.9367C98.0336 11.4039 98.81 10.8706 99.9001 10.8706C101.105 10.8706 101.784 11.4748 101.784 12.4973V15.8047H100.871V15.1244H100.796C100.644 15.3684 100.43 15.5674 100.177 15.7009C99.923 15.8344 99.6388 15.8978 99.353 15.8844C99.1512 15.9056 98.9474 15.8839 98.7545 15.8208C98.5616 15.7577 98.3839 15.6546 98.233 15.5181C98.0821 15.3816 97.9613 15.2148 97.8783 15.0283C97.7953 14.8419 97.752 14.64 97.7512 14.4357ZM100.84 14.0221V13.6174L99.6667 13.693C99.0049 13.7376 98.7048 13.9644 98.7048 14.3911C98.7048 14.8268 99.0799 15.0803 99.5958 15.0803C99.747 15.0957 99.8997 15.0803 100.045 15.0351C100.19 14.9898 100.325 14.9156 100.441 14.8169C100.557 14.7182 100.652 14.597 100.721 14.4604C100.789 14.3239 100.83 14.1748 100.84 14.0221V14.0221Z" fill="white"/>
<path d="M65.5638 14.4357C65.5638 13.5644 66.2079 13.0621 67.3511 12.9907L68.6527 12.9151V12.4973C68.6527 11.986 68.3171 11.6973 67.6689 11.6973C67.1395 11.6973 66.7727 11.8931 66.6674 12.2353H65.7493C65.8462 11.4039 66.6226 10.8706 67.7127 10.8706C68.9174 10.8706 69.5963 11.4748 69.5963 12.4973V15.8047H68.6839V15.1244H68.6089C68.4566 15.3684 68.2428 15.5674 67.9892 15.7009C67.7356 15.8344 67.4514 15.8978 67.1656 15.8844C66.9639 15.9056 66.76 15.8839 66.5671 15.8208C66.3742 15.7577 66.1966 15.6546 66.0457 15.5181C65.8947 15.3816 65.7739 15.2148 65.6909 15.0283C65.6079 14.8419 65.5646 14.64 65.5638 14.4357V14.4357ZM68.6527 14.0221V13.6174L67.4793 13.693C66.8175 13.7376 66.5174 13.9644 66.5174 14.3911C66.5174 14.8268 66.8925 15.0803 67.4084 15.0803C67.5596 15.0957 67.7123 15.0804 67.8574 15.0351C68.0025 14.9899 68.1372 14.9157 68.2533 14.8169C68.3693 14.7182 68.4645 14.597 68.5332 14.4604C68.6018 14.3239 68.6424 14.1748 68.6527 14.0221L68.6527 14.0221Z" fill="white"/>
<path d="M84.5299 14.4978C84.401 14.9402 84.1219 15.3229 83.7412 15.5789C83.3606 15.8349 82.9027 15.9479 82.4477 15.8982C82.1312 15.9066 81.8166 15.8455 81.5258 15.7192C81.235 15.5929 80.9749 15.4043 80.7637 15.1665C80.5525 14.9288 80.3952 14.6477 80.3027 14.3425C80.2102 14.0374 80.1847 13.7157 80.228 13.3997C80.1859 13.0827 80.2118 12.7602 80.3041 12.4542C80.3964 12.1482 80.5529 11.8657 80.763 11.6259C80.973 11.3861 81.2318 11.1946 81.5218 11.0643C81.8117 10.934 82.1261 10.868 82.4436 10.8707C83.7806 10.8707 84.5872 11.7909 84.5872 13.3109V13.6443H81.1941V13.6978C81.1792 13.8754 81.2014 14.0542 81.2591 14.2227C81.3169 14.3912 81.409 14.5457 81.5295 14.6763C81.6499 14.8069 81.7962 14.9106 81.9588 14.9809C82.1214 15.0512 82.2968 15.0865 82.4738 15.0845C82.7006 15.112 82.9305 15.0708 83.134 14.9663C83.3376 14.8618 83.5057 14.6987 83.617 14.4977L84.5299 14.4978ZM81.194 12.9378H83.6211C83.6331 12.7753 83.6112 12.6121 83.5568 12.4587C83.5024 12.3053 83.4168 12.165 83.3054 12.0469C83.194 11.9288 83.0593 11.8355 82.91 11.773C82.7607 11.7104 82.6 11.68 82.4383 11.6838C82.2743 11.6817 82.1115 11.7127 81.9596 11.775C81.8077 11.8373 81.6697 11.9296 81.5537 12.0465C81.4378 12.1633 81.3462 12.3024 81.2844 12.4555C81.2227 12.6086 81.1919 12.7725 81.1941 12.9378H81.194Z" fill="white"/>
<path d="M103.269 10.9639H104.182V11.7329H104.253C104.373 11.4567 104.576 11.2252 104.833 11.0706C105.09 10.916 105.389 10.8461 105.687 10.8705C105.921 10.8528 106.156 10.8883 106.374 10.9744C106.592 11.0605 106.789 11.195 106.948 11.3679C107.108 11.5408 107.227 11.7477 107.297 11.9733C107.366 12.1988 107.385 12.4372 107.35 12.6709V15.8045H106.402V12.9108C106.402 12.1329 106.066 11.746 105.365 11.746C105.206 11.7386 105.048 11.7658 104.9 11.8258C104.753 11.8858 104.62 11.9772 104.511 12.0937C104.402 12.2103 104.32 12.3491 104.269 12.5009C104.218 12.6526 104.201 12.8135 104.218 12.9727V15.8046H103.269V10.9639Z" fill="white"/>
<path d="M58.0554 12.5458C57.995 12.2948 57.8473 12.0739 57.6391 11.9231C57.4309 11.7723 57.176 11.7016 56.9206 11.7238C56.1265 11.7238 55.6408 12.3369 55.6408 13.3683C55.6408 14.4176 56.1307 15.0444 56.9206 15.0444C57.1735 15.0739 57.4284 15.0093 57.6374 14.8628C57.8464 14.7162 57.9951 14.4978 58.0554 14.2486H58.9777C58.9167 14.7388 58.6681 15.1855 58.2847 15.4936C57.9014 15.8017 57.4138 15.9468 56.9258 15.8978C56.6045 15.9081 56.2848 15.8474 55.9892 15.7202C55.6936 15.593 55.4292 15.4023 55.2144 15.1613C54.9996 14.9204 54.8396 14.6351 54.7457 14.3254C54.6518 14.0157 54.6262 13.6891 54.6706 13.3684C54.6284 13.05 54.6556 12.7262 54.7505 12.4196C54.8453 12.1129 55.0054 11.8308 55.2197 11.5929C55.4339 11.3551 55.6971 11.1672 55.9909 11.0424C56.2847 10.9176 56.6019 10.8589 56.9206 10.8704C57.4125 10.8247 57.9028 10.9743 58.287 11.2872C58.6712 11.6001 58.919 12.0517 58.9777 12.5458L58.0554 12.5458Z" fill="white"/>
<path d="M38.0488 15.8044V10.2967H36.0458V9.39014H41.0365V10.2966H39.0377V15.8044H38.0488Z" fill="white"/>
<path d="M91.9821 13.3821C91.9821 11.8525 92.7626 10.8836 93.9767 10.8836C94.277 10.8696 94.575 10.9421 94.836 11.0925C95.0969 11.2428 95.31 11.4649 95.4502 11.7328H95.5211V9.07422H96.4694V15.8045H95.5607V15.0397H95.4856C95.3345 15.3058 95.114 15.5251 94.8481 15.674C94.5821 15.8229 94.2807 15.8956 93.9767 15.8843C92.7543 15.8843 91.9821 14.9153 91.9821 13.3821ZM92.9617 13.3821C92.9617 14.4088 93.4421 15.0266 94.2456 15.0266C95.0449 15.0266 95.5388 14.3999 95.5388 13.3863C95.5388 12.3774 95.0397 11.7418 94.2456 11.7418C93.4473 11.7418 92.9616 12.3638 92.9616 13.3821H92.9617Z" fill="white"/>
<path d="M60.2365 9.07422H61.1765V11.7418H61.2515C61.3776 11.463 61.5859 11.2302 61.8481 11.075C62.1103 10.9198 62.4136 10.8499 62.7167 10.8746C62.9493 10.8619 63.1818 10.901 63.3977 10.9892C63.6135 11.0774 63.8074 11.2125 63.9655 11.3849C64.1235 11.5572 64.2419 11.7626 64.3121 11.9863C64.3823 12.2101 64.4026 12.4467 64.3716 12.6793V15.8045H63.4222V12.9149C63.4222 12.1417 63.0647 11.7502 62.3947 11.7502C62.2317 11.7367 62.0677 11.7593 61.9143 11.8163C61.7609 11.8733 61.6217 11.9634 61.5064 12.0803C61.3912 12.1972 61.3027 12.3381 61.2471 12.493C61.1916 12.648 61.1703 12.8133 61.1848 12.9774V15.8045H60.2365L60.2365 9.07422Z" fill="white"/>
<path d="M47.01 9.07422H47.9583V15.8045H47.01V9.07422Z" fill="white"/>
<path d="M53.5785 14.4976C53.4496 14.94 53.1705 15.3227 52.7898 15.5787C52.4092 15.8347 51.9513 15.9477 51.4963 15.898C51.1797 15.9064 50.8651 15.8453 50.5743 15.719C50.2835 15.5927 50.0235 15.4041 49.8123 15.1663C49.6011 14.9286 49.4438 14.6475 49.3513 14.3423C49.2588 14.0372 49.2333 13.7155 49.2766 13.3995C49.2344 13.0825 49.2604 12.76 49.3527 12.454C49.445 12.148 49.6015 11.8655 49.8115 11.6257C50.0216 11.3859 50.2804 11.1944 50.5704 11.0641C50.8603 10.9338 51.1747 10.8678 51.4921 10.8705C52.8292 10.8705 53.6358 11.7907 53.6358 13.3107V13.6441H50.2426V13.6976C50.2278 13.8752 50.2499 14.054 50.3077 14.2225C50.3654 14.391 50.4575 14.5455 50.578 14.6761C50.6985 14.8067 50.8447 14.9104 51.0074 14.9807C51.17 15.051 51.3454 15.0863 51.5223 15.0843C51.7492 15.1118 51.979 15.0706 52.1826 14.9661C52.3861 14.8616 52.5543 14.6985 52.6655 14.4975L53.5785 14.4976ZM50.2426 12.9376H52.6697C52.6817 12.7751 52.6597 12.6119 52.6054 12.4585C52.551 12.3051 52.4654 12.1648 52.354 12.0467C52.2426 11.9286 52.1079 11.8353 51.9586 11.7728C51.8092 11.7102 51.6486 11.6798 51.4869 11.6836C51.3229 11.6815 51.1601 11.7125 51.0082 11.7748C50.8562 11.8371 50.7182 11.9294 50.6023 12.0463C50.4863 12.1631 50.3947 12.3022 50.333 12.4553C50.2712 12.6083 50.2405 12.7723 50.2426 12.9376ZM50.9221 10.1545L52.0299 8.62549H53.1418L51.9017 10.1545H50.9221Z" fill="white"/>
<path d="M45.6355 14.4976C45.5066 14.94 45.2275 15.3227 44.8468 15.5787C44.4662 15.8347 44.0083 15.9477 43.5533 15.898C43.2367 15.9064 42.9221 15.8453 42.6313 15.719C42.3405 15.5927 42.0805 15.4041 41.8693 15.1663C41.6581 14.9286 41.5008 14.6475 41.4083 14.3423C41.3158 14.0372 41.2903 13.7155 41.3336 13.3995C41.2914 13.0825 41.3174 12.76 41.4097 12.454C41.502 12.148 41.6585 11.8655 41.8685 11.6257C42.0786 11.3859 42.3374 11.1944 42.6274 11.0641C42.9173 10.9338 43.2317 10.8678 43.5491 10.8705C44.8862 10.8705 45.6928 11.7907 45.6928 13.3107V13.6441H42.2996V13.6976C42.2848 13.8752 42.307 14.054 42.3647 14.2225C42.4225 14.391 42.5145 14.5455 42.635 14.6761C42.7555 14.8067 42.9018 14.9104 43.0644 14.9807C43.227 15.051 43.4024 15.0863 43.5794 15.0843C43.8062 15.1118 44.036 15.0706 44.2396 14.9661C44.4432 14.8616 44.6113 14.6985 44.7226 14.4975L45.6355 14.4976ZM42.2996 12.9376H44.7267C44.7387 12.7751 44.7168 12.6119 44.6624 12.4585C44.608 12.3051 44.5224 12.1648 44.411 12.0467C44.2996 11.9286 44.1649 11.8353 44.0156 11.7728C43.8663 11.7102 43.7056 11.6798 43.5439 11.6836C43.3799 11.6815 43.2171 11.7125 43.0652 11.7748C42.9133 11.8371 42.7753 11.9294 42.6593 12.0463C42.5433 12.1631 42.4518 12.3022 42.39 12.4553C42.3282 12.6083 42.2975 12.7723 42.2996 12.9376H42.2996ZM42.9791 10.1545L44.0869 8.62549H45.1988L43.9587 10.1545H42.9791Z" fill="white"/>
<path d="M109.945 23.0391H111.837V24.6957H111.883C112.011 24.1783 112.311 23.721 112.735 23.4008C113.158 23.0806 113.678 22.9169 114.206 22.9372C114.435 22.9364 114.663 22.9614 114.886 23.0118V24.8804C114.597 24.7916 114.296 24.7508 113.995 24.7597C113.707 24.7479 113.419 24.7991 113.153 24.9098C112.886 25.0204 112.646 25.1879 112.45 25.4007C112.254 25.6134 112.106 25.8665 112.015 26.1425C111.925 26.4185 111.896 26.7108 111.928 26.9994V32.7723H109.945L109.945 23.0391Z" fill="white"/>
<path d="M76.7986 27.9061C76.7986 30.9306 75.1916 32.8738 72.7666 32.8738C72.1523 32.9062 71.5414 32.7636 71.0038 32.4625C70.4661 32.1613 70.0236 31.7138 69.7267 31.171H69.6809V35.9917H67.6982V23.0387H69.6173V24.6575H69.6538C69.9643 24.1173 70.4143 23.6721 70.956 23.3691C71.4977 23.0661 72.1109 22.9167 72.7301 22.9369C75.1822 22.9369 76.7986 24.8895 76.7986 27.9061ZM74.7602 27.9061C74.7602 25.9351 73.7493 24.6397 72.207 24.6397C70.6917 24.6397 69.6725 25.9624 69.6725 27.9061C69.6725 29.8672 70.6917 31.1805 72.207 31.1805C73.7493 31.1805 74.7602 29.8944 74.7602 27.9061V27.9061Z" fill="white"/>
<path d="M66.1653 27.9061C66.1653 30.9306 64.5584 32.8738 62.1334 32.8738C61.5191 32.9062 60.9081 32.7636 60.3705 32.4625C59.8329 32.1613 59.3903 31.7138 59.0935 31.171H59.0476V35.9917H57.0645V23.0387H58.984V24.6575H59.0205C59.331 24.1173 59.781 23.6721 60.3227 23.3691C60.8645 23.0661 61.4776 22.9167 62.0968 22.9369C64.549 22.9369 66.1653 24.8895 66.1653 27.9061ZM64.1269 27.9061C64.1269 25.9351 63.1161 24.6397 61.5737 24.6397C60.0585 24.6397 59.0393 25.9624 59.0393 27.9061C59.0393 29.8672 60.0585 31.1805 61.5737 31.1805C63.1161 31.1805 64.1269 29.8944 64.1269 27.9061V27.9061Z" fill="white"/>
<path d="M99.1447 27.906C99.1447 24.8432 100.935 22.9189 103.727 22.9189C106.528 22.9189 108.31 24.8432 108.31 27.906C108.31 30.9767 106.537 32.8926 103.727 32.8926C100.917 32.8926 99.1447 30.9767 99.1447 27.906ZM106.289 27.906C106.289 25.8049 105.334 24.565 103.727 24.565C102.12 24.565 101.165 25.8143 101.165 27.906C101.165 30.0151 102.12 31.2455 103.727 31.2455C105.334 31.2455 106.289 30.0151 106.289 27.906H106.289Z" fill="white"/>
<path d="M124.028 29.9133C123.762 31.6801 122.054 32.8926 119.868 32.8926C117.058 32.8926 115.313 30.9956 115.313 27.9522C115.313 24.8989 117.067 22.9189 119.785 22.9189C122.458 22.9189 124.139 24.7687 124.139 27.7202V28.4047H117.315V28.5254C117.284 28.8836 117.328 29.2445 117.446 29.584C117.563 29.9235 117.751 30.234 117.997 30.4947C118.243 30.7554 118.541 30.9605 118.872 31.0963C119.202 31.2321 119.557 31.2954 119.914 31.2822C120.383 31.3264 120.853 31.2171 121.255 30.9705C121.657 30.7238 121.969 30.353 122.145 29.9133L124.028 29.9133ZM117.325 27.0084H122.155C122.173 26.6863 122.124 26.364 122.012 26.0616C121.901 25.7593 121.728 25.4835 121.506 25.2515C121.283 25.0195 121.016 24.8363 120.719 24.7135C120.423 24.5906 120.105 24.5308 119.785 24.5377C119.462 24.5358 119.142 24.5983 118.843 24.7217C118.544 24.8451 118.272 25.0269 118.044 25.2566C117.815 25.4863 117.634 25.7594 117.51 26.0601C117.387 26.3607 117.324 26.6831 117.325 27.0084V27.0084Z" fill="white"/>
<path d="M96.2445 20.7354V23.0386H98.0818V24.6207H96.2445V29.9868C96.2445 30.8203 96.6124 31.2087 97.42 31.2087C97.6381 31.2049 97.8559 31.1895 98.0724 31.1625V32.7351C97.7093 32.8035 97.3402 32.8344 96.9709 32.8275C95.0148 32.8275 94.252 32.0874 94.252 30.1998V24.6207H92.8472V23.0386H94.2519V20.7354H96.2445Z" fill="white"/>
<path d="M41.936 24.3071L43.0198 19.4224H44.9478L43.6347 24.3071H41.936Z" fill="white"/>
<path d="M52.4458 29.164H47.3946L46.1816 32.7722H44.0421L48.8265 19.4224H51.0493L55.8337 32.7722H53.6578L52.4458 29.164ZM47.9178 27.499H51.9216L49.9479 21.6427H49.8926L47.9178 27.499Z" fill="white"/>
<path d="M37.5612 19.4224H39.5454V32.7722H37.5612V19.4224Z" fill="white"/>
<path d="M83.8266 29.0527C83.9735 30.3765 85.2501 31.2457 86.9946 31.2457C88.6662 31.2457 89.8688 30.3764 89.8688 29.1828C89.8688 28.1466 89.1435 27.5262 87.426 27.101L85.7086 26.6837C83.2753 26.0917 82.1456 24.9453 82.1456 23.085C82.1456 20.7818 84.1381 19.1997 86.9675 19.1997C89.7676 19.1997 91.6872 20.7818 91.7518 23.085H89.75C89.6301 21.7528 88.5369 20.9487 86.9394 20.9487C85.3418 20.9487 84.2486 21.7623 84.2486 22.9465C84.2486 23.8902 84.9468 24.4456 86.6549 24.8707L88.1149 25.2319C90.8338 25.8796 91.9634 26.9803 91.9634 28.9329C91.9634 31.4304 89.9886 32.9946 86.8477 32.9946C83.9089 32.9946 81.9247 31.4672 81.7965 29.0526L83.8266 29.0527Z" fill="white"/>
</svg>
