<svg width="145" height="44" viewBox="0 0 145 44" fill="none" xmlns="http://www.w3.org/2000/svg">
<path d="M139.333 0.666504H5.99996C3.05444 0.666504 0.666626 3.05432 0.666626 5.99984V37.9998C0.666626 40.9454 3.05444 43.3332 5.99996 43.3332H139.333C142.279 43.3332 144.667 40.9454 144.667 37.9998V5.99984C144.667 3.05432 142.279 0.666504 139.333 0.666504Z" fill="black"/>
<path d="M139.333 1.51984C140.521 1.51984 141.661 1.99184 142.501 2.832C143.341 3.67216 143.813 4.81167 143.813 5.99984V37.9998C143.813 39.188 143.341 40.3275 142.501 41.1677C141.661 42.0078 140.521 42.4798 139.333 42.4798H5.99996C4.81179 42.4798 3.67228 42.0078 2.83212 41.1677C1.99196 40.3275 1.51996 39.188 1.51996 37.9998V5.99984C1.51996 4.81167 1.99196 3.67216 2.83212 2.832C3.67228 1.99184 4.81179 1.51984 5.99996 1.51984H139.333ZM139.333 0.666504H5.99996C4.58547 0.666504 3.22892 1.22841 2.22872 2.2286C1.22853 3.2288 0.666626 4.58535 0.666626 5.99984V37.9998C0.666626 39.4143 1.22853 40.7709 2.22872 41.7711C3.22892 42.7713 4.58547 43.3332 5.99996 43.3332H139.333C140.748 43.3332 142.104 42.7713 143.105 41.7711C144.105 40.7709 144.667 39.4143 144.667 37.9998V5.99984C144.667 4.58535 144.105 3.2288 143.105 2.2286C142.104 1.22841 140.748 0.666504 139.333 0.666504Z" fill="#A6A6A6"/>
<path d="M73.3494 23.8668C72.4507 23.8689 71.5728 24.1375 70.8267 24.6385C70.0806 25.1396 69.4999 25.8506 69.1579 26.6817C68.8159 27.5129 68.7281 28.4267 68.9055 29.3078C69.0829 30.1888 69.5175 30.9974 70.1545 31.6314C70.7915 32.2654 71.6022 32.6963 72.484 32.8696C73.3659 33.0428 74.2793 32.9507 75.1088 32.6048C75.9383 32.2589 76.6466 31.6749 77.1442 30.9264C77.6417 30.178 77.9062 29.2989 77.9041 28.4001C77.9127 27.8006 77.8007 27.2055 77.5746 26.6501C77.3485 26.0948 77.013 25.5906 76.5881 25.1676C76.1631 24.7446 75.6573 24.4115 75.1009 24.188C74.5445 23.9645 73.9489 23.8553 73.3494 23.8668V23.8668ZM73.3494 31.1521C72.7985 31.1907 72.2488 31.0626 71.7717 30.7846C71.2947 30.5065 70.9122 30.0914 70.6742 29.5931C70.4362 29.0949 70.3535 28.5365 70.437 27.9907C70.5205 27.4449 70.7663 26.9368 71.1424 26.5325C71.5185 26.1281 72.0075 25.8463 72.5459 25.7236C73.0843 25.601 73.6472 25.6431 74.1613 25.8445C74.6755 26.0459 75.1171 26.3974 75.4289 26.8532C75.7406 27.3089 75.908 27.848 75.9094 28.4001C75.9266 28.75 75.8735 29.0998 75.7534 29.4289C75.6332 29.7579 75.4484 30.0596 75.2098 30.3161C74.9712 30.5726 74.6837 30.7787 74.3642 30.9223C74.0446 31.0659 73.6996 31.144 73.3494 31.1521ZM63.408 23.8668C62.5093 23.8689 61.6314 24.1375 60.8853 24.6385C60.1393 25.1396 59.5585 25.8506 59.2165 26.6817C58.8746 27.5129 58.7867 28.4267 58.9641 29.3078C59.1415 30.1888 59.5762 30.9974 60.2132 31.6314C60.8502 32.2654 61.6608 32.6963 62.5427 32.8696C63.4246 33.0428 64.338 32.9507 65.1675 32.6048C65.997 32.2589 66.7053 31.6749 67.2028 30.9264C67.7004 30.178 67.9648 29.2989 67.9627 28.4001C67.9714 27.8006 67.8594 27.2055 67.6333 26.6501C67.4072 26.0948 67.0717 25.5906 66.6467 25.1676C66.2217 24.7446 65.716 24.4115 65.1596 24.188C64.6032 23.9645 64.0075 23.8553 63.408 23.8668V23.8668ZM63.408 31.1521C62.8572 31.1907 62.3075 31.0626 61.8304 30.7846C61.3533 30.5065 60.9709 30.0914 60.7329 29.5931C60.4948 29.0949 60.4122 28.5365 60.4957 27.9907C60.5792 27.4449 60.825 26.9368 61.2011 26.5325C61.5772 26.1281 62.0662 25.8463 62.6046 25.7236C63.143 25.601 63.7058 25.6431 64.22 25.8445C64.7341 26.0459 65.1758 26.3974 65.4875 26.8532C65.7993 27.3089 65.9667 27.848 65.9681 28.4001C65.9852 28.75 65.9322 29.0998 65.812 29.4289C65.6919 29.7579 65.5071 30.0596 65.2685 30.3161C65.0299 30.5726 64.7423 30.7787 64.4228 30.9223C64.1033 31.0659 63.7583 31.144 63.408 31.1521ZM51.5894 25.2641V27.1841H56.1974C56.1251 28.0885 55.7492 28.9418 55.1307 29.6055C54.6685 30.0764 54.1125 30.4451 53.4988 30.6876C52.8851 30.9302 52.2274 31.0412 51.5681 31.0135C50.2101 31.0135 48.9078 30.4741 47.9477 29.5139C46.9875 28.5537 46.448 27.2514 46.448 25.8935C46.448 24.5356 46.9875 23.2333 47.9477 22.2731C48.9078 21.3129 50.2101 20.7735 51.5681 20.7735C52.8699 20.7541 54.1269 21.2485 55.0667 22.1495L56.4214 20.7948C55.7856 20.166 55.0308 19.6704 54.2011 19.3371C53.3714 19.0037 52.4835 18.8393 51.5894 18.8535C50.6411 18.8166 49.6952 18.9715 48.8082 19.3089C47.9212 19.6463 47.1115 20.1594 46.4275 20.8172C45.7436 21.4751 45.1994 22.2642 44.8278 23.1374C44.4561 24.0106 44.2645 24.9498 44.2645 25.8988C44.2645 26.8478 44.4561 27.787 44.8278 28.6602C45.1994 29.5334 45.7436 30.3225 46.4275 30.9804C47.1115 31.6383 47.9212 32.1513 48.8082 32.4887C49.6952 32.8261 50.6411 32.981 51.5894 32.9441C52.5018 32.9806 53.4117 32.8236 54.2591 32.4835C55.1066 32.1434 55.8726 31.6279 56.5067 30.9708C57.6268 29.7403 58.2237 28.1219 58.1707 26.4588C58.1745 26.0585 58.1424 25.6587 58.0747 25.2641H51.5894ZM99.9201 26.7575C99.6419 25.9391 99.1217 25.2244 98.4283 24.7083C97.735 24.1921 96.9012 23.8986 96.0374 23.8668C95.4539 23.8657 94.8764 23.9842 94.3406 24.2151C93.8047 24.446 93.3219 24.7844 92.9221 25.2092C92.5222 25.6341 92.2137 26.1365 92.0156 26.6854C91.8176 27.2342 91.7343 27.8178 91.7707 28.4001C91.7616 29.3739 92.0677 30.3244 92.6434 31.1098C93.219 31.8951 94.0333 32.4732 94.9646 32.7576C95.8959 33.0421 96.8942 33.0176 97.8104 32.6878C98.7266 32.3581 99.5116 31.7408 100.048 30.9281L98.5014 29.8615C98.2708 30.2458 97.9438 30.5631 97.5527 30.782C97.1617 31.001 96.7202 31.1138 96.272 31.1095C95.8097 31.1286 95.3524 31.0074 94.9603 30.7618C94.5681 30.5162 94.2594 30.1577 94.0747 29.7335L100.144 27.2268L99.9201 26.7575ZM93.7334 28.2721C93.7118 27.9408 93.7565 27.6085 93.8649 27.2947C93.9733 26.9808 94.1432 26.6918 94.3647 26.4444C94.5863 26.1971 94.8549 25.9964 95.1549 25.8542C95.455 25.712 95.7804 25.631 96.1121 25.6161C96.4557 25.5952 96.798 25.6761 97.0959 25.8488C97.3938 26.0214 97.6341 26.2782 97.7867 26.5868L93.7334 28.2721ZM88.8054 32.6668H90.8001V19.3335H88.8054V32.6668ZM85.5414 24.8801H85.4667C85.1687 24.5408 84.801 24.2698 84.3886 24.0857C83.9762 23.9016 83.529 23.8088 83.0774 23.8135C81.9117 23.87 80.8125 24.3729 80.0075 25.2178C79.2025 26.0628 78.7535 27.1851 78.7535 28.3521C78.7535 29.5192 79.2025 30.6415 80.0075 31.4865C80.8125 32.3314 81.9117 32.8343 83.0774 32.8908C83.5296 32.8999 83.9783 32.809 84.3913 32.6246C84.8043 32.4402 85.1715 32.1669 85.4667 31.8241H85.5414V32.4748C85.5414 34.2135 84.6134 35.1415 83.1201 35.1415C82.6212 35.1305 82.1369 34.9716 81.7285 34.6848C81.3202 34.398 81.0063 33.9963 80.8267 33.5308L79.0987 34.2455C79.4182 35.0479 79.9737 35.7344 80.6917 36.2144C81.4097 36.6943 82.2565 36.9451 83.1201 36.9335C85.4561 36.9335 87.3867 35.5575 87.3867 32.2081V24.1335H85.5414V24.8801ZM83.2481 31.1521C82.5492 31.1086 81.8932 30.8002 81.4137 30.2899C80.9342 29.7796 80.6673 29.1057 80.6673 28.4055C80.6673 27.7052 80.9342 27.0314 81.4137 26.521C81.8932 26.0107 82.5492 25.7024 83.2481 25.6588C83.5896 25.6736 83.9248 25.7569 84.2335 25.9038C84.5422 26.0507 84.8183 26.2582 85.0452 26.5139C85.2721 26.7697 85.4452 27.0685 85.5543 27.3925C85.6633 27.7166 85.7061 28.0592 85.68 28.4001C85.7091 28.7422 85.6686 29.0866 85.5608 29.4126C85.453 29.7385 85.2802 30.0392 85.0528 30.2965C84.8255 30.5537 84.5483 30.7622 84.2381 30.9092C83.9279 31.0563 83.5911 31.139 83.2481 31.1521V31.1521ZM109.264 19.3335H104.485V32.6668H106.48V27.6108H109.264C109.833 27.6517 110.403 27.5749 110.941 27.3855C111.478 27.196 111.971 26.8978 112.388 26.5095C112.806 26.1212 113.138 25.6511 113.366 25.1285C113.593 24.6059 113.711 24.0421 113.711 23.4721C113.711 22.9022 113.593 22.3384 113.366 21.8158C113.138 21.2932 112.806 20.8231 112.388 20.4348C111.971 20.0465 111.478 19.7483 110.941 19.5588C110.403 19.3694 109.833 19.2926 109.264 19.3335V19.3335ZM109.264 25.7335H106.48V21.1895H109.307C109.606 21.1895 109.903 21.2485 110.18 21.3632C110.457 21.478 110.709 21.6461 110.921 21.8581C111.133 22.07 111.301 22.3217 111.416 22.5986C111.53 22.8756 111.589 23.1724 111.589 23.4721C111.589 23.7719 111.53 24.0687 111.416 24.3457C111.301 24.6226 111.133 24.8743 110.921 25.0862C110.709 25.2982 110.457 25.4663 110.18 25.5811C109.903 25.6958 109.606 25.7548 109.307 25.7548L109.264 25.7335ZM121.573 23.8241C120.847 23.7794 120.123 23.9485 119.492 24.3106C118.861 24.6727 118.349 25.2119 118.021 25.8615L119.781 26.5975C119.959 26.2768 120.226 26.0146 120.55 25.8423C120.873 25.6701 121.24 25.5952 121.605 25.6268C121.859 25.5972 122.115 25.6184 122.36 25.689C122.605 25.7597 122.833 25.8784 123.032 26.0382C123.231 26.1981 123.395 26.3959 123.517 26.6201C123.638 26.8443 123.714 27.0905 123.739 27.3441V27.4721C123.097 27.135 122.383 26.9593 121.659 26.9601C119.76 26.9601 117.819 28.0268 117.819 29.9681C117.837 30.3808 117.939 30.7854 118.117 31.1581C118.295 31.5307 118.547 31.8637 118.856 32.1373C119.166 32.411 119.527 32.6196 119.919 32.7509C120.31 32.8821 120.724 32.9334 121.136 32.9015C121.637 32.9292 122.135 32.8232 122.582 32.5946C123.028 32.3659 123.405 32.0227 123.675 31.6001H123.739V32.6668H125.659V27.5361C125.659 25.2001 123.888 23.8455 121.616 23.8455L121.573 23.8241ZM121.328 31.1308C120.677 31.1308 119.771 30.8001 119.771 30.0001C119.771 28.9335 120.901 28.5708 121.904 28.5708C122.538 28.5552 123.164 28.7099 123.717 29.0188C123.65 29.5981 123.376 30.1335 122.944 30.5257C122.513 30.918 121.954 31.1405 121.371 31.1521L121.328 31.1308ZM132.656 24.1335L130.373 29.9148H130.309L127.941 24.1335H125.808L129.36 32.2188L127.333 36.7095H129.413L134.875 24.1335H132.656ZM114.736 32.6668H116.72V19.3335H114.736V32.6668Z" fill="white"/>
<path d="M11.8028 8.70943C11.4513 9.12503 11.2719 9.65926 11.3015 10.2028V33.7974C11.2652 34.3418 11.4453 34.8785 11.8028 35.2908L11.8775 35.3761L25.0935 22.1601V21.8401L11.8775 8.63477L11.8028 8.70943Z" fill="url(#paint0_linear)"/>
<path d="M29.4666 26.5652L25.0933 22.1599V21.8399L29.4666 17.4346L29.5626 17.4986L34.7999 20.4639C36.2933 21.3066 36.2933 22.6932 34.7999 23.5466L29.5839 26.5119L29.4666 26.5652Z" fill="url(#paint1_linear)"/>
<path d="M29.5946 26.5013L25.0933 22L11.8026 35.2907C12.104 35.559 12.4898 35.7133 12.8931 35.7269C13.2964 35.7406 13.6918 35.6127 14.0106 35.3653L29.5946 26.5013" fill="url(#paint2_linear)"/>
<path opacity="0.2" d="M29.4666 26.4053L14.0106 35.2053C13.7034 35.4372 13.3289 35.5626 12.9439 35.5626C12.559 35.5626 12.1845 35.4372 11.8773 35.2053V35.2053L11.8026 35.2799L11.8773 35.3653C12.1845 35.5972 12.559 35.7226 12.9439 35.7226C13.3289 35.7226 13.7034 35.5972 14.0106 35.3653L29.5946 26.5013L29.4666 26.4053Z" fill="black"/>
<path opacity="0.12" d="M11.8025 35.1412C11.4599 34.7181 11.292 34.1801 11.3331 33.6372V33.7972C11.2969 34.3416 11.477 34.8783 11.8345 35.2905L11.9091 35.2159L11.8025 35.1412Z" fill="black"/>
<path opacity="0.12" d="M34.8 23.3867L29.4667 26.4053L29.5627 26.5013L34.8 23.536C35.1092 23.4053 35.3773 23.1936 35.5763 22.9233C35.7753 22.653 35.8977 22.334 35.9307 22C35.864 22.3035 35.7269 22.5872 35.5305 22.828C35.3341 23.0689 35.0839 23.2602 34.8 23.3867Z" fill="black"/>
<path d="M29.5946 17.4986L14.0106 8.64523C13.6938 8.39448 13.2988 8.26343 12.895 8.27514C12.4911 8.28684 12.1043 8.44055 11.8026 8.70924L25.0933 21.9999L29.5946 17.4986Z" fill="url(#paint3_linear)"/>
<path opacity="0.25" d="M14.0106 8.79458L34.7999 20.6132C35.0838 20.7397 35.3341 20.931 35.5305 21.1719C35.7268 21.4127 35.8639 21.6964 35.9306 21.9999C35.8976 21.6659 35.7752 21.3469 35.5763 21.0766C35.3773 20.8063 35.1091 20.5946 34.7999 20.4639L14.0106 8.64524C12.5279 7.79191 11.3013 8.49591 11.3013 10.2026V10.3626C11.3333 8.65591 12.5279 7.95191 14.0106 8.79458Z" fill="white"/>
<path d="M104.069 14.672C103.75 14.6855 103.432 14.6307 103.136 14.5111C102.839 14.3915 102.572 14.21 102.352 13.9786C101.905 13.4793 101.671 12.8244 101.701 12.1546V8.1333H102.523V12.1866C102.501 12.6331 102.641 13.0725 102.917 13.424C103.062 13.5833 103.241 13.7082 103.44 13.7894C103.639 13.8707 103.854 13.9062 104.069 13.8933C104.278 13.9106 104.487 13.8812 104.683 13.8074C104.878 13.7336 105.055 13.6172 105.2 13.4666C105.48 13.1167 105.624 12.6772 105.605 12.2293V8.1333H106.427V12.1546C106.459 12.8227 106.229 13.4771 105.787 13.9786C105.568 14.2117 105.301 14.3943 105.004 14.5141C104.708 14.6338 104.389 14.6876 104.069 14.672V14.672Z" fill="white"/>
<path fill-rule="evenodd" clip-rule="evenodd" d="M101.601 8.0332H102.623V12.1914C102.602 12.6127 102.734 13.0272 102.994 13.3593C103.128 13.5063 103.293 13.6216 103.478 13.6967C103.663 13.7723 103.863 13.8053 104.063 13.7934L104.071 13.793L104.078 13.7935C104.271 13.8096 104.466 13.7823 104.648 13.7138C104.828 13.6458 104.991 13.5388 105.125 13.4005C105.388 13.0699 105.523 12.6556 105.505 12.2334L105.505 12.2292L105.505 8.0332H106.527V12.1522C106.559 12.8454 106.321 13.5242 105.862 14.0447L105.86 14.047C105.631 14.2906 105.352 14.4816 105.042 14.6067C104.733 14.7312 104.401 14.7876 104.069 14.772C103.737 14.7854 103.406 14.7281 103.098 14.6037C102.789 14.4788 102.51 14.2892 102.28 14.0475L102.278 14.0453C101.813 13.527 101.571 12.8474 101.601 12.1523V8.0332ZM104.069 14.6719L104.074 14.572C104.379 14.587 104.684 14.5355 104.967 14.4212C105.249 14.3071 105.504 14.1331 105.713 13.9112C106.137 13.4293 106.358 12.8009 106.327 12.1593L106.327 12.1545L106.327 8.2332H105.705V12.2271C105.725 12.6984 105.573 13.1608 105.278 13.529L105.272 13.5362C105.117 13.6975 104.928 13.8219 104.718 13.9009C104.511 13.9791 104.289 14.0107 104.068 13.9934C103.841 14.006 103.613 13.9679 103.402 13.882C103.189 13.7951 102.998 13.6615 102.843 13.4911L102.839 13.4858C102.548 13.1161 102.4 12.6539 102.423 12.1841V8.2332H101.801V12.1591C101.772 12.8021 101.996 13.431 102.426 13.9107C102.636 14.1312 102.891 14.3042 103.173 14.4183C103.456 14.5325 103.76 14.5849 104.065 14.572L104.069 14.6719Z" fill="white"/>
<path d="M93.5521 8.92263H90.6401V10.9493H93.2641V11.7173H90.6401V13.744H93.5521V14.5333H89.8187V8.1333H93.5521V8.92263Z" fill="white"/>
<path fill-rule="evenodd" clip-rule="evenodd" d="M89.7188 8.0332H93.6521V9.02254H90.7401V10.8492H93.3641V11.8172H90.7401V13.6439H93.6521V14.6332H89.7188V8.0332ZM89.9188 8.2332V14.4332H93.4521V13.8439H90.5401V11.6172H93.1641V11.0492H90.5401V8.82254H93.4521V8.2332H89.9188Z" fill="white"/>
<path d="M85.1893 14.5333V8.1333H86V13.744H88.7733V14.5333H85.1893Z" fill="white"/>
<path fill-rule="evenodd" clip-rule="evenodd" d="M85.0894 8.0332H86.1V13.6439H88.8734V14.6332H85.0894V8.0332ZM85.2894 8.2332V14.4332H88.6734V13.8439H85.9V8.2332H85.2894Z" fill="white"/>
<path d="M79.696 14.5334V8.1334H82.0107C82.4906 8.12858 82.9548 8.30363 83.3121 8.62406C83.4903 8.77875 83.6324 8.97071 83.7282 9.18637C83.8241 9.40202 83.8713 9.63611 83.8667 9.87206C83.8693 10.1594 83.7877 10.4412 83.632 10.6827C83.4746 10.9118 83.2568 11.0927 83.0027 11.2054V11.2054C83.3107 11.3107 83.5812 11.5034 83.7814 11.7601C83.9775 12.0215 84.0824 12.34 84.08 12.6667C84.0855 12.9126 84.0367 13.1567 83.9372 13.3816C83.8376 13.6065 83.6897 13.8068 83.5041 13.9681C83.1338 14.3126 82.6443 14.4999 82.1387 14.4907L79.696 14.5334ZM80.5174 10.8747H82.0107C82.1504 10.8828 82.2902 10.8592 82.4195 10.8056C82.5488 10.752 82.6643 10.6699 82.7574 10.5654C82.9383 10.3882 83.0418 10.1466 83.0454 9.8934C83.0555 9.63939 82.9676 9.3912 82.8 9.20006C82.7104 9.10059 82.5998 9.02222 82.4762 8.97057C82.3526 8.91893 82.2192 8.89531 82.0854 8.9014H80.5174V10.8747ZM80.5174 13.7441H82.1814C82.3258 13.7489 82.4696 13.7218 82.6024 13.6646C82.7351 13.6075 82.8536 13.5217 82.9494 13.4134C83.1336 13.2167 83.2365 12.9575 83.2374 12.6881C83.2309 12.4208 83.1243 12.1658 82.9387 11.9734C82.8359 11.8654 82.7116 11.7802 82.5738 11.7233C82.436 11.6663 82.2878 11.6389 82.1387 11.6427H80.5174V13.7441Z" fill="white"/>
<path fill-rule="evenodd" clip-rule="evenodd" d="M83.2453 8.69841C82.9067 8.39466 82.4666 8.22873 82.0117 8.23329L82.0107 8.2333L79.7961 8.2333V14.4315L82.1406 14.3906C82.6203 14.3993 83.0847 14.2216 83.436 13.8948L83.4385 13.8924C83.6131 13.7408 83.7521 13.5525 83.8457 13.3411C83.9393 13.1296 83.9852 12.9001 83.9801 12.6688L83.98 12.6659C83.9822 12.3614 83.8846 12.0645 83.702 11.8207C83.5138 11.5798 83.2596 11.3988 82.9704 11.2999L83.0027 11.2053L82.9622 11.1139C83.1989 11.0089 83.4019 10.8404 83.5488 10.6272C83.6934 10.4024 83.7691 10.1402 83.7667 9.87286L83.7668 9.87001C83.7711 9.6487 83.7267 9.42915 83.6368 9.22688C83.547 9.02461 83.4137 8.84457 83.2465 8.69949L83.2453 8.69841ZM83.2374 11.1941C83.4799 11.3121 83.6932 11.4843 83.8603 11.6985L83.8614 11.7C84.0703 11.9785 84.1822 12.3178 84.1801 12.6659C84.1856 12.926 84.1339 13.1841 84.0286 13.422C83.9234 13.6598 83.7671 13.8716 83.571 14.0423C83.1824 14.4033 82.6691 14.5998 82.1387 14.5906L79.5961 14.6351V8.0333H82.0102C82.5146 8.02836 83.0026 8.21232 83.3782 8.54898C83.5673 8.71317 83.7179 8.91686 83.8196 9.14565C83.9212 9.37427 83.9714 9.62239 83.9667 9.87251C83.9692 10.1789 83.8821 10.4793 83.7161 10.7368L83.7145 10.7393C83.5882 10.923 83.4255 11.0776 83.2374 11.1941ZM82.0832 8.8013C82.231 8.79492 82.3783 8.82117 82.5148 8.87821C82.652 8.93555 82.7748 9.02256 82.8743 9.13301L82.8753 9.13403C83.0595 9.34412 83.1561 9.61682 83.1454 9.896C83.1411 10.174 83.0277 10.4392 82.8298 10.6343C82.7271 10.7489 82.6 10.839 82.4578 10.8979C82.3155 10.9569 82.1617 10.9831 82.0079 10.9746H80.4174V8.8013H82.0832ZM82.4377 9.06274C82.3277 9.0168 82.209 8.99578 82.09 9.0012L82.0854 9.0014L80.6174 9.0013V10.7746H82.0165C82.1412 10.7818 82.2659 10.7609 82.3812 10.7131C82.4966 10.6653 82.5997 10.5921 82.6827 10.4988L82.6873 10.4937C82.8493 10.3349 82.9422 10.1187 82.9454 9.89188L82.9455 9.88933C82.9545 9.66116 82.8757 9.43821 82.7253 9.26641C82.6456 9.17815 82.5474 9.1086 82.4377 9.06274ZM82.1375 11.5426C82.3 11.5386 82.4617 11.5686 82.612 11.6307C82.7626 11.693 82.8985 11.7861 83.0109 11.9041C83.2138 12.1145 83.3303 12.3934 83.3374 12.6855L83.3374 12.6883C83.3364 12.9826 83.2242 13.2656 83.0234 13.4806C82.918 13.5994 82.7878 13.6936 82.6419 13.7564C82.4962 13.8191 82.3384 13.849 82.1798 13.844H80.4174V11.5426H82.1375ZM82.5356 11.8156C82.4107 11.764 82.2764 11.7391 82.1413 11.7426L82.1387 11.7427L80.6174 11.7426V13.644H82.1848C82.3145 13.6483 82.4436 13.624 82.5628 13.5727C82.6821 13.5213 82.7885 13.4443 82.8745 13.3471L82.8764 13.3449C83.043 13.167 83.1362 12.9327 83.1374 12.689C83.1312 12.4473 83.0346 12.2167 82.8668 12.0427C82.7736 11.9449 82.6605 11.8672 82.5356 11.8156Z" fill="white"/>
<path d="M77.4667 14.5333V8.1333H78.288V14.5333H77.4667Z" fill="white"/>
<path fill-rule="evenodd" clip-rule="evenodd" d="M77.3667 8.0332H78.388V14.6332H77.3667V8.0332ZM77.5667 8.2332V14.4332H78.188V8.2332H77.5667Z" fill="white"/>
<path d="M71.0667 14.5333V8.1333H72.0693L75.1733 13.1146V11.8773V8.1333H76.0053V14.5333H75.1413L71.9413 9.3173V10.544V14.5333H71.0667Z" fill="white"/>
<path fill-rule="evenodd" clip-rule="evenodd" d="M70.9667 8.0332H72.1249L75.0733 12.765V8.0332H76.1053V14.6332H75.0854L72.0413 9.67143V14.6332H70.9667V8.0332ZM71.1667 8.2332V14.4332H71.8413V8.96297L75.1973 14.4332H75.9053V8.2332H75.2733V13.4641L72.0138 8.2332H71.1667Z" fill="white"/>
<path d="M51.056 14.5333V8.1333H51.8667V14.5333H51.056Z" fill="white"/>
<path fill-rule="evenodd" clip-rule="evenodd" d="M50.9561 8.0332H51.9667V14.6332H50.9561V8.0332ZM51.1561 8.2332V14.4332H51.7667V8.2332H51.1561Z" fill="white"/>
<path d="M107.76 14.5336V8.1336H109.893C110.415 8.12463 110.921 8.31981 111.301 8.6776C111.495 8.84715 111.649 9.05745 111.753 9.29347C111.856 9.52949 111.906 9.78541 111.899 10.0429C111.898 10.4771 111.743 10.8969 111.461 11.2269C111.189 11.5553 110.813 11.781 110.395 11.8669V11.8669L112.187 14.5336H111.216L109.467 11.9416H108.56V14.5336H107.76ZM108.581 11.1736H109.904C110.216 11.1799 110.518 11.0652 110.747 10.8536C110.86 10.7515 110.95 10.6263 111.01 10.4864C111.071 10.3466 111.101 10.1954 111.099 10.0429C111.096 9.75395 110.986 9.47635 110.789 9.26426C110.684 9.15022 110.555 9.06059 110.411 9.00163C110.267 8.94267 110.112 8.91581 109.957 8.92293H108.581V11.1736Z" fill="white"/>
<path fill-rule="evenodd" clip-rule="evenodd" d="M111.233 8.75036C110.871 8.41041 110.391 8.22497 109.895 8.23348L109.893 8.23351L107.86 8.2335V14.4335H108.46V11.8415H109.52L111.269 14.4335H111.999L110.312 11.9226L110.395 11.8668L110.374 11.7689C110.77 11.6875 111.126 11.4738 111.384 11.163L111.385 11.1619C111.652 10.8499 111.798 10.4531 111.799 10.0428L111.799 10.0401C111.805 9.79727 111.758 9.55599 111.661 9.33346C111.564 9.11093 111.418 8.91265 111.235 8.75279L111.233 8.75036ZM110.557 11.9299L112.374 14.6335H111.163L109.413 12.0415H108.66V14.6335H107.66V8.0335H109.892C110.44 8.02433 110.969 8.22876 111.368 8.6034C111.573 8.78244 111.735 9.00433 111.844 9.25329C111.953 9.50239 112.006 9.77245 111.999 10.0442C111.998 10.5015 111.835 10.9435 111.538 11.2912C111.282 11.599 110.94 11.8211 110.557 11.9299ZM109.955 8.82283C110.124 8.81542 110.292 8.84483 110.449 8.90902C110.606 8.9735 110.747 9.07152 110.863 9.19624C111.076 9.42647 111.195 9.72779 111.199 10.0415C111.201 10.2081 111.169 10.3733 111.102 10.5262C111.036 10.6789 110.938 10.8157 110.814 10.9273C110.566 11.156 110.24 11.2801 109.903 11.2735H108.481V8.82283H109.955ZM110.373 9.09405C110.243 9.04062 110.102 9.01628 109.962 9.02273L109.957 9.02294L108.681 9.02283V11.0735H109.906C110.192 11.0793 110.469 10.9741 110.679 10.7801L110.68 10.7792C110.782 10.6867 110.864 10.5732 110.919 10.4465C110.974 10.3198 111.001 10.1827 110.999 10.0446C110.996 9.78046 110.895 9.52594 110.716 9.33209C110.62 9.22874 110.503 9.14748 110.373 9.09405Z" fill="white"/>
<path d="M59.3333 14.5336H58.512V8.1336H60.6453C61.1676 8.12463 61.6727 8.31981 62.0533 8.6776C62.2418 8.85046 62.3923 9.06063 62.4952 9.29475C62.5982 9.52887 62.6514 9.78184 62.6514 10.0376C62.6514 10.2934 62.5982 10.5463 62.4952 10.7804C62.3923 11.0146 62.2418 11.2247 62.0533 11.3976C61.6727 11.7554 61.1676 11.9506 60.6453 11.9416H59.3333V14.5336ZM59.3333 11.1523H60.72C60.8734 11.1578 61.0262 11.1302 61.1679 11.0713C61.3097 11.0124 61.437 10.9236 61.5413 10.8109C61.6462 10.7113 61.7297 10.5913 61.7868 10.4584C61.8439 10.3254 61.8733 10.1823 61.8733 10.0376C61.8733 9.89292 61.8439 9.74975 61.7868 9.6168C61.7297 9.48386 61.6462 9.36391 61.5413 9.26426C61.437 9.15162 61.3097 9.06281 61.1679 9.0039C61.0262 8.945 60.8734 8.91738 60.72 8.92293H59.3333V11.1523Z" fill="white"/>
<path fill-rule="evenodd" clip-rule="evenodd" d="M61.9848 8.75036C61.6232 8.41041 61.1433 8.22497 60.647 8.23348L60.6453 8.23351L58.612 8.2335V14.4335H59.2333V11.8415H60.647C61.1433 11.85 61.6232 11.6646 61.9848 11.3246L61.9857 11.3238C62.164 11.1603 62.3064 10.9615 62.4037 10.7401C62.5011 10.5187 62.5514 10.2794 62.5514 10.0375C62.5514 9.7956 62.5011 9.55634 62.4037 9.33491C62.3064 9.11347 62.164 8.9147 61.9857 8.7512L61.9848 8.75036ZM62.1214 8.60421C61.7221 8.22905 61.1923 8.02432 60.6445 8.0335H58.412V14.6335H59.4333V12.0415H60.6445C61.1923 12.0507 61.7221 11.8459 62.1214 11.4708C62.3199 11.2886 62.4784 11.0672 62.5868 10.8206C62.6953 10.5738 62.7514 10.3071 62.7514 10.0375C62.7514 9.76788 62.6953 9.5012 62.5868 9.25439C62.4784 9.00777 62.3199 8.78637 62.1214 8.60421ZM60.7182 8.82283C60.8854 8.81705 61.0518 8.84727 61.2063 8.91146C61.3604 8.97548 61.4989 9.07179 61.6125 9.19388C61.7262 9.30243 61.8167 9.43283 61.8787 9.57726C61.9411 9.72267 61.9733 9.87926 61.9733 10.0375C61.9733 10.1957 61.9411 10.3523 61.8787 10.4977C61.8167 10.6422 61.7262 10.7726 61.6125 10.8811C61.4989 11.0032 61.3604 11.0995 61.2063 11.1635C61.0518 11.2277 60.8854 11.258 60.7182 11.2522H59.2333V8.82283H60.7182ZM61.1296 9.09615C61.0011 9.04276 60.8626 9.01773 60.7236 9.02277L60.72 9.0229L59.4333 9.02283V11.0522H60.7236C60.8626 11.0572 61.0011 11.0322 61.1296 10.9788C61.258 10.9255 61.3734 10.845 61.4679 10.7429L61.4723 10.7382C61.5674 10.6479 61.6432 10.5393 61.6949 10.4188C61.7466 10.2984 61.7733 10.1686 61.7733 10.0375C61.7733 9.90638 61.7466 9.77664 61.6949 9.65616C61.6432 9.53567 61.5675 9.42697 61.4724 9.33667L61.4678 9.33224C61.3733 9.23016 61.258 9.14954 61.1296 9.09615Z" fill="white"/>
<path d="M44.6987 14.5336V8.13361H46.6507C47.0849 8.11263 47.5187 8.18031 47.9259 8.33252C48.333 8.48473 48.7048 8.71829 49.0187 9.01895C49.3128 9.32652 49.5425 9.68965 49.6946 10.0871C49.8466 10.4845 49.9178 10.9083 49.9041 11.3336C49.9178 11.7589 49.8466 12.1827 49.6946 12.5801C49.5425 12.9776 49.3128 13.3407 49.0187 13.6483C48.7048 13.9489 48.333 14.1825 47.9259 14.3347C47.5187 14.4869 47.0849 14.5546 46.6507 14.5336H44.6987ZM45.5201 13.7443H46.6507C46.9747 13.7738 47.3012 13.7317 47.607 13.6209C47.9129 13.5102 48.1907 13.3336 48.4207 13.1036C48.6507 12.8736 48.8273 12.5958 48.9381 12.2899C49.0488 11.984 49.0909 11.6576 49.0614 11.3336C49.089 11.0101 49.0456 10.6844 48.9342 10.3794C48.8228 10.0744 48.6461 9.79745 48.4165 9.56785C48.1869 9.33824 47.9099 9.16157 47.6049 9.05018C47.2999 8.93879 46.9743 8.89536 46.6507 8.92295H45.5201V13.7443Z" fill="white"/>
<path fill-rule="evenodd" clip-rule="evenodd" d="M47.8909 8.42609C47.4965 8.27863 47.0762 8.21307 46.6556 8.2334L46.6508 8.23363L44.7988 8.23352V14.4335H46.6556C47.0762 14.4538 47.4965 14.3884 47.8909 14.2409C48.2846 14.0937 48.6443 13.868 48.948 13.5775C49.2321 13.2799 49.4542 12.9286 49.6012 12.5443C49.7485 12.1593 49.8175 11.7488 49.8041 11.3367L49.8039 11.3303C49.8172 10.9183 49.7485 10.5077 49.6012 10.1227C49.4542 9.73839 49.2321 9.38717 48.948 9.08954C48.6442 8.79902 48.2846 8.57329 47.8909 8.42609ZM46.6484 8.03352C47.0953 8.01225 47.5418 8.08207 47.9609 8.23876C48.3808 8.39573 48.7642 8.63658 49.0879 8.94663L49.0911 8.94968C49.3944 9.26686 49.6312 9.64141 49.788 10.0513C49.9444 10.4601 50.0178 10.896 50.0041 11.3335C50.0178 11.771 49.9444 12.2069 49.788 12.6158C49.6312 13.0256 49.3943 13.4001 49.091 13.7173L49.088 13.7205C48.7643 14.0305 48.3808 14.2713 47.9609 14.4283C47.5418 14.585 47.0953 14.6548 46.6484 14.6335H44.5988V8.03352H46.6484ZM46.6465 8.82285C46.9832 8.79477 47.3219 8.84025 47.6392 8.95615C47.9579 9.07254 48.2473 9.25714 48.4872 9.49704C48.7271 9.73694 48.9117 10.0263 49.0281 10.345C49.1435 10.6609 49.1891 10.9981 49.1618 11.3332C49.1911 11.6689 49.1468 12.007 49.0321 12.3239C48.9164 12.6435 48.7318 12.9338 48.4914 13.1742C48.2511 13.4146 47.9607 13.5992 47.6411 13.7149C47.3229 13.8301 46.9833 13.8742 46.6463 13.8442H45.4201V8.82285H46.6465ZM47.5706 9.14401C47.2793 9.03762 46.9683 8.99614 46.6593 9.02249L46.6508 9.02321L45.6201 9.02285V13.6442H46.6599C46.9692 13.6723 47.2809 13.6325 47.573 13.5268C47.8651 13.4211 48.1304 13.2524 48.35 13.0328C48.5697 12.8131 48.7383 12.5479 48.8441 12.2558C48.9498 11.9637 48.99 11.6519 48.9618 11.3426L48.961 11.3338L48.9618 11.325C48.9881 11.016 48.9467 10.705 48.8403 10.4136C48.7339 10.1223 48.5651 9.85776 48.3458 9.63846C48.1265 9.41916 47.862 9.25041 47.5706 9.14401Z" fill="white"/>
<path d="M98.5225 14.672C98.0328 14.663 97.5571 14.5069 97.1572 14.224C96.7195 13.9202 96.4113 13.4636 96.2932 12.944L97.0399 12.6347C97.1314 12.9819 97.3245 13.2939 97.5945 13.5307C97.8493 13.7607 98.1793 13.8896 98.5225 13.8934C98.8519 13.9027 99.175 13.8013 99.4399 13.6054C99.5622 13.5214 99.6615 13.4081 99.7286 13.2757C99.7957 13.1434 99.8285 12.9963 99.8239 12.848C99.8324 12.6886 99.8019 12.5294 99.735 12.3845C99.668 12.2395 99.5667 12.113 99.4399 12.016C99.0708 11.7696 98.6635 11.5858 98.2345 11.472C97.7577 11.3488 97.3183 11.1108 96.9545 10.7787C96.81 10.6422 96.6962 10.4765 96.6208 10.2926C96.5453 10.1086 96.51 9.9107 96.5172 9.71203C96.5174 9.48407 96.566 9.25874 96.6598 9.05096C96.7536 8.84318 96.8904 8.65767 97.0612 8.5067C97.4475 8.199 97.9225 8.02358 98.416 8.00629C98.9096 7.98901 99.3957 8.13078 99.8025 8.4107C100.11 8.62981 100.341 8.9393 100.464 9.29603L99.7172 9.60536C99.647 9.38083 99.5045 9.18583 99.3119 9.0507C99.0842 8.86413 98.7952 8.76906 98.5012 8.78403C98.2087 8.77927 97.9231 8.87321 97.6905 9.0507C97.5856 9.12627 97.5 9.22556 97.4407 9.34048C97.3814 9.45541 97.35 9.58271 97.3492 9.71203C97.3504 9.82885 97.3791 9.94376 97.4328 10.0475C97.4865 10.1513 97.5638 10.2409 97.6585 10.3094C97.9343 10.5071 98.2406 10.6584 98.5652 10.7574C98.8378 10.8361 99.105 10.9323 99.3652 11.0454C99.5907 11.1519 99.8051 11.2805 100.005 11.4294C100.216 11.5801 100.385 11.782 100.496 12.016C100.611 12.2745 100.669 12.5546 100.667 12.8374C100.671 13.1262 100.605 13.4118 100.475 13.6694C100.357 13.9029 100.181 14.1015 99.9625 14.2454C99.7541 14.3914 99.5237 14.503 99.2799 14.576C99.0335 14.6451 98.7783 14.6774 98.5225 14.672V14.672Z" fill="white" stroke="white" stroke-width="0.2" stroke-miterlimit="10"/>
<path d="M55.1413 14.672C54.6547 14.6642 54.182 14.5079 53.7867 14.224C53.3449 13.9221 53.0327 13.4653 52.912 12.944L53.6587 12.6347C53.7502 12.9819 53.9433 13.2939 54.2133 13.5307C54.4681 13.7607 54.7981 13.8896 55.1413 13.8934C55.4709 13.9044 55.7945 13.8028 56.0587 13.6054C56.181 13.5214 56.2803 13.4081 56.3474 13.2757C56.4145 13.1434 56.4472 12.9963 56.4427 12.848C56.4512 12.6886 56.4206 12.5294 56.3537 12.3845C56.2868 12.2395 56.1855 12.113 56.0587 12.016C55.6936 11.7693 55.2898 11.5854 54.864 11.472C54.384 11.3488 53.9411 11.1109 53.5733 10.7787C53.4309 10.6406 53.3185 10.4746 53.2433 10.291C53.168 10.1075 53.1315 9.91036 53.136 9.71203C53.1362 9.48407 53.1848 9.25874 53.2786 9.05096C53.3724 8.84318 53.5092 8.65767 53.68 8.5067C54.0663 8.199 54.5412 8.02358 55.0348 8.00629C55.5284 7.98901 56.0144 8.13078 56.4213 8.4107C56.7285 8.62981 56.9597 8.9393 57.0827 9.29603L56.336 9.60536C56.2652 9.384 56.1272 9.19016 55.9413 9.0507C55.7089 8.8652 55.417 8.77043 55.12 8.78403C54.8275 8.77927 54.5419 8.87321 54.3093 9.0507C54.2057 9.12681 54.1217 9.22648 54.0642 9.34147C54.0067 9.45646 53.9774 9.58347 53.9787 9.71203C53.9772 9.82934 54.0047 9.94519 54.0586 10.0494C54.1126 10.1535 54.1914 10.2428 54.288 10.3094C54.5612 10.5114 54.8682 10.6631 55.1947 10.7574C55.4632 10.8377 55.7268 10.9339 55.984 11.0454C56.2108 11.1494 56.4254 11.2782 56.624 11.4294C56.8347 11.5801 57.0036 11.782 57.1147 12.016C57.2346 12.2728 57.293 12.554 57.2853 12.8374C57.2902 13.1262 57.2242 13.4118 57.0933 13.6694C56.976 13.9029 56.7994 14.1015 56.5813 14.2454C56.3729 14.3914 56.1424 14.503 55.8987 14.576C55.6523 14.6451 55.3971 14.6774 55.1413 14.672Z" fill="white"/>
<path fill-rule="evenodd" clip-rule="evenodd" d="M56.3639 8.4925C55.9748 8.22505 55.5101 8.08961 55.0383 8.10614C54.567 8.12264 54.1134 8.28987 53.7443 8.58322C53.5849 8.72451 53.4573 8.89789 53.3697 9.092C53.2817 9.28688 53.2361 9.49821 53.2359 9.71203L53.2359 9.71421C53.2317 9.89876 53.2657 10.0822 53.3357 10.253C53.4055 10.4233 53.5097 10.5773 53.6416 10.7056C53.9971 11.0263 54.4251 11.256 54.8888 11.3751C55.3254 11.4913 55.7403 11.6801 56.1146 11.9331L56.1194 11.9363C56.2592 12.0432 56.3707 12.1827 56.4445 12.3425C56.5176 12.5009 56.5513 12.6748 56.5427 12.8491C56.547 13.0127 56.5106 13.1748 56.4365 13.3209C56.3622 13.4675 56.2523 13.5932 56.1169 13.6866C55.8351 13.8966 55.4903 14.0048 55.1391 13.9932C54.7721 13.989 54.4193 13.851 54.1468 13.6053C53.8908 13.3806 53.7003 13.0918 53.5943 12.7695L53.0301 13.0032C53.1577 13.4659 53.4453 13.8695 53.843 14.1414L53.8449 14.1427C54.2238 14.4146 54.6766 14.5644 55.1429 14.5719C55.3886 14.5771 55.6341 14.5461 55.8708 14.4799C56.104 14.41 56.3245 14.3031 56.5239 14.1634L56.5262 14.1618C56.7297 14.0275 56.8945 13.8422 57.0039 13.6244C57.1274 13.3814 57.1899 13.1115 57.1853 12.8389L57.1852 12.8345C57.1925 12.5669 57.1374 12.3012 57.0241 12.0585C56.9203 11.8399 56.7626 11.6514 56.5658 11.5106L56.5633 11.5089C56.3709 11.3624 56.163 11.2375 55.9432 11.1366C55.6901 11.0269 55.4307 10.9323 55.1664 10.8532C54.8292 10.7558 54.5121 10.5992 54.2298 10.3907C54.1203 10.3149 54.031 10.2135 53.9698 10.0953C53.9085 9.97683 53.8772 9.84516 53.8786 9.71182C53.8774 9.56778 53.9103 9.42549 53.9747 9.29665C54.0392 9.16775 54.1333 9.05599 54.2493 8.97055C54.4988 8.78041 54.8049 8.67949 55.1185 8.6839C55.4382 8.67001 55.7521 8.77215 56.0025 8.97151C56.1754 9.10157 56.3101 9.27487 56.3936 9.47313L56.955 9.24055C56.833 8.94089 56.6283 8.68126 56.3639 8.4925ZM53.8786 9.71182C53.8786 9.71145 53.8786 9.71108 53.8786 9.71072L53.9786 9.71193L53.8786 9.71292C53.8786 9.71255 53.8786 9.71219 53.8786 9.71182ZM55.0313 7.90626C55.5463 7.88822 56.0534 8.03615 56.478 8.32821L56.4794 8.32918C56.8035 8.56038 57.0474 8.88694 57.1772 9.26335L57.2078 9.3523L56.2738 9.73925L56.2407 9.63574C56.1762 9.43414 56.0506 9.25761 55.8813 9.1306L55.8789 9.12879C55.6654 8.95841 55.3974 8.87134 55.1245 8.88383L55.1183 8.88411C54.8483 8.87972 54.5846 8.96625 54.3699 9.1301L54.3685 9.1312C54.2777 9.19793 54.204 9.28529 54.1536 9.38609C54.1032 9.4869 54.0775 9.59825 54.0786 9.71094L54.0786 9.71315C54.0774 9.81404 54.101 9.91369 54.1474 10.0033C54.1938 10.0929 54.2615 10.1697 54.3447 10.2269L54.3474 10.2288C54.6111 10.4238 54.9073 10.5702 55.2224 10.6612C55.4947 10.7427 55.7629 10.8405 56.0237 10.9535L56.0257 10.9544C56.2587 11.0613 56.4793 11.1936 56.6833 11.3488C56.9073 11.5093 57.0868 11.7241 57.205 11.9731C57.3311 12.2433 57.3931 12.5397 57.3853 12.8378C57.39 13.1421 57.3204 13.443 57.1825 13.7144C57.0576 13.963 56.8696 14.1745 56.6375 14.328C56.4207 14.4797 56.1809 14.5958 55.9273 14.6717L55.9256 14.6722C55.6698 14.7439 55.4048 14.7775 55.1392 14.7719C55.139 14.7719 55.1393 14.7719 55.1392 14.7719C54.6327 14.7636 54.1408 14.601 53.7292 14.3058C53.7296 14.3061 53.7299 14.3063 53.7302 14.3065L53.7866 14.2239L53.7283 14.3052C53.7286 14.3054 53.7289 14.3056 53.7292 14.3058C53.2673 13.9898 52.9408 13.5118 52.8145 12.9665L52.7954 12.884L53.7261 12.4984L53.7553 12.6091C53.8418 12.9371 54.0242 13.2318 54.2792 13.4554L54.2803 13.4564C54.517 13.67 54.8235 13.7898 55.1424 13.7933L55.1446 13.7933C55.4515 13.8036 55.7528 13.709 55.9987 13.5252L56.002 13.5227C56.1105 13.4483 56.1986 13.3478 56.2581 13.2304C56.3177 13.113 56.3467 12.9826 56.3427 12.851L56.3424 12.8426C56.35 12.6994 56.323 12.5565 56.2629 12.4263C56.2032 12.2969 56.113 12.184 56.0001 12.0971C56.001 12.0977 56.0018 12.0982 56.0026 12.0988L56.0586 12.0159L55.9979 12.0954C55.9986 12.096 55.9994 12.0965 56.0001 12.0971C55.6451 11.8575 55.2525 11.6789 54.8386 11.5687C54.3431 11.4414 53.8859 11.1957 53.5062 10.8528L53.5036 10.8504C53.3513 10.7028 53.2312 10.5252 53.1507 10.3289C53.0703 10.1329 53.0313 9.92249 53.0359 9.71075C53.0359 9.71111 53.0359 9.71148 53.0359 9.71184L53.1359 9.71193L53.036 9.70966C53.036 9.71002 53.036 9.71039 53.0359 9.71075C53.0363 9.469 53.0879 9.23008 53.1874 9.00973C53.287 8.78904 53.4323 8.59201 53.6137 8.43167L53.6176 8.42828C54.0206 8.10723 54.5163 7.92429 55.0313 7.90626Z" fill="white"/>
<path d="M68.9334 13.7013C68.6253 14.0096 68.2595 14.2542 67.8568 14.4211C67.4541 14.5879 67.0226 14.6738 66.5867 14.6738C66.1508 14.6738 65.7192 14.5879 65.3166 14.4211C64.9139 14.2542 64.5481 14.0096 64.24 13.7013C63.637 13.0602 63.3013 12.2133 63.3013 11.3333C63.3013 10.4532 63.637 9.60627 64.24 8.96526C64.5481 8.65693 64.9139 8.41233 65.3166 8.24545C65.7192 8.07857 66.1508 7.99268 66.5867 7.99268C67.0226 7.99268 67.4541 8.07857 67.8568 8.24545C68.2595 8.41233 68.6253 8.65693 68.9334 8.96526C69.2377 9.27848 69.4765 9.64922 69.6358 10.0558C69.7951 10.4624 69.8718 10.8967 69.8614 11.3333C69.8767 11.7704 69.8023 12.2061 69.6427 12.6134C69.4831 13.0207 69.2417 13.3909 68.9334 13.7013V13.7013ZM64.848 13.1679C65.0728 13.4014 65.3431 13.5862 65.6421 13.7109C65.9412 13.8357 66.2627 13.8978 66.5867 13.8933C66.911 13.8997 67.233 13.8385 67.5324 13.7136C67.8317 13.5888 68.1018 13.4029 68.3254 13.1679C68.7856 12.6678 69.0411 12.0129 69.0411 11.3333C69.0411 10.6536 68.7856 9.99872 68.3254 9.49859C68.1018 9.26361 67.8317 9.07776 67.5324 8.95288C67.233 8.828 66.911 8.76683 66.5867 8.77326C66.2627 8.76876 65.9412 8.83082 65.6421 8.95558C65.3431 9.08034 65.0728 9.26516 64.848 9.49859C64.3945 10.0021 64.1436 10.6557 64.1436 11.3333C64.1436 12.0109 64.3945 12.6644 64.848 13.1679Z" fill="white"/>
<path fill-rule="evenodd" clip-rule="evenodd" d="M66.5867 8.09258C66.164 8.09258 65.7454 8.17588 65.3549 8.33773C64.9648 8.49939 64.6104 8.73624 64.3119 9.03478C63.7269 9.65711 63.4013 10.4791 63.4013 11.3332C63.4013 12.1873 63.7269 13.0092 64.3119 13.6315C64.6104 13.9301 64.9648 14.1669 65.3549 14.3286C65.7454 14.4904 66.164 14.5737 66.5867 14.5737C67.0094 14.5737 67.428 14.4904 67.8185 14.3286C68.209 14.1667 68.5638 13.9295 68.8626 13.6305C69.1612 13.3299 69.395 12.9713 69.5496 12.5768C69.7043 12.1823 69.7764 11.7602 69.7614 11.3367L69.7612 11.3308L69.7614 11.3308C69.7716 10.9075 69.6972 10.4864 69.5427 10.0922C69.3883 9.6982 69.1569 9.33892 68.8621 9.03534C68.5635 8.73654 68.2088 8.49949 67.8185 8.33773C67.428 8.17588 67.0094 8.09258 66.5867 8.09258ZM68.9333 13.7011L69.0041 13.7718C68.6868 14.0895 68.3099 14.3414 67.8951 14.5133C67.4803 14.6853 67.0357 14.7737 66.5867 14.7737C66.1377 14.7737 65.6931 14.6853 65.2783 14.5133C64.8635 14.3414 64.4867 14.0895 64.1693 13.7718L64.1672 13.7697L64.1672 13.7697C63.5468 13.1101 63.2013 12.2387 63.2013 11.3332C63.2013 10.4276 63.5468 9.55621 64.1672 8.89664L64.1693 8.89445L64.1693 8.89448C64.4867 8.57686 64.8635 8.32488 65.2783 8.15297C65.6931 7.98106 66.1377 7.89258 66.5867 7.89258C67.0357 7.89258 67.4803 7.98106 67.8951 8.15297C68.3099 8.32488 68.6868 8.57686 69.0041 8.89448L69.0051 8.89547L69.0051 8.89548C69.3187 9.21823 69.5647 9.60026 69.7289 10.0192C69.8928 10.4373 69.9718 10.8837 69.9614 11.3326C69.9769 11.7824 69.9001 12.2307 69.7358 12.6498C69.5712 13.0698 69.3223 13.4516 69.0043 13.7716L68.9333 13.7011ZM66.5864 8.67315C66.924 8.66669 67.2593 8.73049 67.5709 8.86049C67.8831 8.99072 68.1647 9.18452 68.3978 9.42956L68.399 9.43077L68.399 9.43078C68.8762 9.94937 69.1411 10.6284 69.1411 11.3332C69.1411 12.0379 68.8762 12.717 68.399 13.2355L68.3978 13.2368L68.3978 13.2368C68.1647 13.4818 67.8831 13.6756 67.5709 13.8058C67.2593 13.9358 66.924 13.9996 66.5864 13.9932C66.2493 13.9976 65.9148 13.9329 65.6036 13.8031C65.292 13.6731 65.0103 13.4805 64.776 13.2372L64.7737 13.2348L64.7737 13.2348C64.3037 12.7129 64.0436 12.0355 64.0436 11.3332C64.0436 10.6308 64.3037 9.95341 64.7737 9.43157L64.776 9.4291L64.776 9.42913C65.0103 9.18585 65.292 8.99322 65.6036 8.86319C65.9148 8.73338 66.2493 8.6687 66.5864 8.67315ZM67.4939 9.04508C67.2074 8.92554 66.8991 8.86699 66.5887 8.87314L66.5853 8.87321L66.5853 8.87315C66.275 8.86885 65.9671 8.92828 65.6806 9.04777C65.3947 9.16706 65.1363 9.34365 64.9212 9.56666C64.485 10.0516 64.2436 10.6808 64.2436 11.3332C64.2436 11.9855 64.485 12.6147 64.9212 13.0997C65.1363 13.3227 65.3947 13.4993 65.6806 13.6185C65.9671 13.738 66.275 13.7975 66.5853 13.7932L66.5887 13.7931L66.5887 13.7932C66.8991 13.7993 67.2074 13.7408 67.4939 13.6212C67.7802 13.5018 68.0385 13.3241 68.2524 13.0995C68.6953 12.6179 68.9411 11.9875 68.9411 11.3332C68.9411 10.6788 68.6953 10.0484 68.2524 9.56682C68.0385 9.34218 67.7802 9.1645 67.4939 9.04508Z" fill="white"/>
<defs>
<linearGradient id="paint0_linear" x1="23.9201" y1="9.95743" x2="6.02146" y2="27.8561" gradientUnits="userSpaceOnUse">
<stop stop-color="#00A0FF"/>
<stop offset="0.01" stop-color="#00A1FF"/>
<stop offset="0.26" stop-color="#00BEFF"/>
<stop offset="0.51" stop-color="#00D2FF"/>
<stop offset="0.76" stop-color="#00DFFF"/>
<stop offset="1" stop-color="#00E3FF"/>
</linearGradient>
<linearGradient id="paint1_linear" x1="36.7519" y1="21.9999" x2="10.9493" y2="21.9999" gradientUnits="userSpaceOnUse">
<stop stop-color="#FFE000"/>
<stop offset="0.41" stop-color="#FFBD00"/>
<stop offset="0.78" stop-color="#FFA500"/>
<stop offset="1" stop-color="#FF9C00"/>
</linearGradient>
<linearGradient id="paint2_linear" x1="27.1519" y1="24.4533" x2="2.87461" y2="48.72" gradientUnits="userSpaceOnUse">
<stop stop-color="#FF3A44"/>
<stop offset="1" stop-color="#C31162"/>
</linearGradient>
<linearGradient id="paint3_linear" x1="8.45328" y1="0.858569" x2="19.2906" y2="11.6959" gradientUnits="userSpaceOnUse">
<stop stop-color="#32A071"/>
<stop offset="0.07" stop-color="#2DA771"/>
<stop offset="0.48" stop-color="#15CF74"/>
<stop offset="0.8" stop-color="#06E775"/>
<stop offset="1" stop-color="#00F076"/>
</linearGradient>
</defs>
</svg>
