<svg width="34" height="34" viewBox="0 0 34 34" fill="none" xmlns="http://www.w3.org/2000/svg">
<path d="M17.0127 0.765972C16.0088 0.765972 15.1979 1.57685 15.1979 2.5808L15.185 15.1559L2.59708 15.1559C1.59314 15.1559 0.782257 15.9668 0.782257 16.9707C0.782257 17.9746 1.59314 18.7855 2.59708 18.7855L15.185 18.7855L15.185 31.3735C15.185 32.3774 15.9959 33.1883 16.9999 33.1883C18.0038 33.1883 18.8147 32.3774 18.8147 31.3735L18.8147 18.7855L31.4026 18.7855C32.4066 18.7855 33.2175 17.9746 33.2175 16.9707C33.2175 15.9668 32.4066 15.1559 31.4026 15.1559L18.8147 15.1559L18.8147 2.56793C18.8147 1.58972 17.9909 0.765973 17.0127 0.765972Z" fill="white"/>
</svg>
