<svg width="18" height="18" viewBox="0 0 18 18" fill="none" xmlns="http://www.w3.org/2000/svg">
<path fill-rule="evenodd" clip-rule="evenodd" d="M12 7C12 9.76142 9.76142 12 7 12C4.23858 12 2 9.76142 2 7C2 4.23858 4.23858 2 7 2C9.76142 2 12 4.23858 12 7ZM10.9307 12.793C9.81018 13.5548 8.45708 14 7 14C3.13401 14 0 10.866 0 7C0 3.13401 3.13401 0 7 0C10.866 0 14 3.13401 14 7C14 8.68488 13.4047 10.2307 12.413 11.4387L17.6757 16.2628C18.0828 16.636 18.1103 17.2686 17.7372 17.6757C17.364 18.0828 16.7314 18.1103 16.3243 17.7372L10.9307 12.793Z" fill="#3B4653"/>
</svg>
