<svg width="23" height="15" viewBox="0 0 23 15" fill="none" xmlns="http://www.w3.org/2000/svg">
<path d="M1.27778 15H6.38889C7.09167 15 7.66667 14.4375 7.66667 13.75C7.66667 13.0625 7.09167 12.5 6.38889 12.5H1.27778C0.575 12.5 0 13.0625 0 13.75C0 14.4375 0.575 15 1.27778 15ZM0 1.25C0 1.9375 0.575 2.5 1.27778 2.5H21.7222C22.425 2.5 23 1.9375 23 1.25C23 0.5625 22.425 0 21.7222 0H1.27778C0.575 0 0 0.5625 0 1.25ZM1.27778 8.75H14.0556C14.7583 8.75 15.3333 8.1875 15.3333 7.5C15.3333 6.8125 14.7583 6.25 14.0556 6.25H1.27778C0.575 6.25 0 6.8125 0 7.5C0 8.1875 0.575 8.75 1.27778 8.75Z" fill="#516071"/>
</svg>
