<svg width="19" height="14" viewBox="0 0 19 14" fill="none" xmlns="http://www.w3.org/2000/svg">
<path d="M18.603 2.19053C18.3845 1.32829 17.7406 0.649214 16.9232 0.41876C15.4415 0 9.5 0 9.5 0C9.5 0 3.55856 0 2.07682 0.41876C1.25936 0.64925 0.615539 1.32829 0.397023 2.19053C0 3.75339 0 7.01415 0 7.01415C0 7.01415 0 10.2749 0.397023 11.8378C0.615539 12.7 1.25936 13.3508 2.07682 13.5812C3.55856 14 9.5 14 9.5 14C9.5 14 15.4414 14 16.9232 13.5812C17.7406 13.3508 18.3845 12.7 18.603 11.8378C19 10.2749 19 7.01415 19 7.01415C19 7.01415 19 3.75339 18.603 2.19053ZM7.5568 9.97467V4.05362L12.5227 7.01422L7.5568 9.97467Z" fill="#F9F7F6"/>
</svg>
